<svg xmlns="http://www.w3.org/2000/svg" viewBox="0 0 512 512">
  <defs>
    <linearGradient id="shell" x1="0" y1="0" x2="0" y2="1">
      <stop offset="0" stop-color="#ffffff"/>
      <stop offset="1" stop-color="#dfe7ee"/>
    </linearGradient>
    <linearGradient id="visor" x1="0" y1="0" x2="0" y2="1">
      <stop offset="0" stop-color="#1e293b"/>
      <stop offset="1" stop-color="#0b1220"/>
    </linearGradient>
    <filter id="glow" x="-50%" y="-50%" width="200%" height="200%">
      <feGaussianBlur stdDeviation="10" result="b"/>
      <feMerge><feMergeNode in="b"/><feMergeNode in="SourceGraphic"/></feMerge>
    </filter>
  </defs>
  <rect width="512" height="512" rx="112" fill="#1e1e1e"/>
  <g transform="translate(48,40) scale(1.625)">
    <path d="M128 16 C150 30 180 38 214 40 C220 40 224 45 224 51 V116 C224 176 186 220 128 242 C70 220 32 176 32 116 V51 C32 45 36 40 42 40 C76 38 106 30 128 16 Z"
          fill="url(#shell)" stroke="#0f172a" stroke-opacity="0.22" stroke-width="7" stroke-linejoin="round"/>
    <rect x="62" y="84" width="132" height="70" rx="35" fill="url(#visor)"/>
    <g filter="url(#glow)" fill="#38bdf8">
      <rect x="90" y="101" width="24" height="36" rx="12"/>
      <rect x="142" y="101" width="24" height="36" rx="12"/>
    </g>
    <path d="M70 60 C92 52 112 46 128 36" fill="none" stroke="#ffffff" stroke-width="8" stroke-linecap="round" opacity="0.9"/>
  </g>
</svg>
